<svg xmlns="http://www.w3.org/2000/svg" xmlns:xlink="http://www.w3.org/1999/xlink" viewBox="0,0,256,256" width="400px" height="400px" fill-rule="nonzero"><g fill="none" fill-rule="nonzero" stroke="none" stroke-width="1" stroke-linecap="butt" stroke-linejoin="miter" stroke-miterlimit="10" stroke-dasharray="" stroke-dashoffset="0" font-family="none" font-weight="none" font-size="none" text-anchor="none" style="mix-blend-mode: normal"><g transform="scale(-2.56,2.56) translate(-100,0)"><path d="M77.419,32.405c-3.286,-8.253 -10.614,-13.108 -16.368,-10.846c-1.432,0.564 -55.051,23.397 -55.051,23.397c0,0 5,-1.956 13.5,-1.956c12.837,0 17.743,6.005 17.743,6.005c0,0 0.008,0.016 0.014,0.032v0c0.053,0.124 0.112,0.242 0.162,0.369c3.286,8.253 1.284,16.777 -4.47,19.039c0,0 38.123,-16.262 40,-17c5.754,-2.263 7.756,-10.787 4.47,-19.04z" fill="#b1bdd0"></path><path d="M37.267,49.032l40.152,-16.627c-3.286,-8.253 -10.614,-13.108 -16.368,-10.846c-1.432,0.564 -55.051,23.397 -55.051,23.397c0,0 5,-1.956 13.5,-1.956c12.837,0 17.767,6.032 17.767,6.032z" fill="#d1dae7"></path><path d="M37.243,49.005c-0.247,-0.293 -5.233,-6.005 -17.743,-6.005c-1.092,0 -2.124,0.033 -3.097,0.089c-1.851,3.794 -1.935,9.203 0.178,14.509c3.286,8.253 10.614,13.108 16.368,10.846c5.754,-2.263 7.756,-10.787 4.47,-19.039c-0.054,-0.137 -0.119,-0.265 -0.176,-0.4z" fill="#4d94ff"></path><path d="M24.026,43.509c-0.353,0 -0.677,0.057 -0.962,0.169c-0.946,0.372 -1.527,1.333 -1.848,2.074c-1.103,2.545 -0.92,6.305 0.476,9.812c2.433,6.109 7.023,8.64 9.245,7.762c0.946,-0.372 1.527,-1.334 1.849,-2.075c1.103,-2.546 0.92,-6.306 -0.476,-9.812c-2.052,-5.15 -5.799,-7.93 -8.284,-7.93z" fill="#444445"></path><path d="M16.402,43.091c-6.601,0.382 -10.402,1.865 -10.402,1.865c2,9.544 10.581,12.643 10.581,12.643c-2.112,-5.306 -2.029,-10.714 -0.179,-14.508z" fill="#7c8a9e"></path><path d="M91,55h-2c-2.209,0 -4,1.791 -4,4v17c0,2.209 1.791,4 4,4h2z" fill="#b1bdd0"></path><path d="M85.013,64h-18.013c-0.552,0 -1,-0.448 -1,-1v-4h-6.99l-0.005,6.996c-0.002,2.763 2.237,5.004 5,5.004h21.009v-7z" fill="#7c8a9e"></path><path d="M69,53v4c0,1.105 -0.895,2 -2,2h-12" fill="#8e9db5"></path><g fill="#1f212b"><path d="M91,81h-2c-2.757,0 -5,-2.243 -5,-5v-17c0,-2.757 2.243,-5 5,-5h2c0.552,0 1,0.448 1,1v25c0,0.552 -0.448,1 -1,1zM89,56c-1.654,0 -3,1.346 -3,3v17c0,1.654 1.346,3 3,3h1v-23z"></path><path d="M86.013,72h-22.009c-1.604,0 -3.111,-0.625 -4.245,-1.759c-1.133,-1.134 -1.757,-2.642 -1.755,-4.246l0.006,-7.995h8.99v5h19.013zM60.009,60l-0.004,5.996c-0.001,1.069 0.415,2.075 1.17,2.831c0.755,0.756 1.76,1.173 2.829,1.173h20.009v-5h-17.013c-1.103,0 -2,-0.897 -2,-2v-3z"></path><path d="M29.928,64.007c-2.765,0 -6.602,-2.984 -8.701,-8.257c-1.443,-3.626 -1.624,-7.533 -0.47,-10.196c0.359,-0.828 1.019,-1.907 2.125,-2.341c2.54,-0.998 7.426,1.846 9.893,8.042c1.443,3.625 1.624,7.532 0.47,10.196c-0.359,0.828 -1.019,1.907 -2.125,2.342c-0.366,0.143 -0.766,0.214 -1.192,0.214zM24.026,44.009c-0.29,0 -0.552,0.045 -0.779,0.135c-0.786,0.309 -1.289,1.153 -1.572,1.808c-1.052,2.428 -0.867,6.041 0.481,9.428c2.285,5.738 6.618,8.263 8.597,7.482c0.787,-0.31 1.29,-1.155 1.573,-1.809c1.052,-2.428 0.867,-6.041 -0.481,-9.428c-1.97,-4.947 -5.499,-7.616 -7.819,-7.616z"></path><path d="M33.342,69.365l-0.785,-1.84c1.557,-0.664 38.158,-16.276 40.027,-17.011c1.887,-0.742 3.384,-2.289 4.331,-4.475c1.584,-3.659 1.426,-8.618 -0.424,-13.264c-3.077,-7.73 -9.84,-12.345 -15.073,-10.285c-1.31,0.515 -47.654,20.248 -54.251,23.056c2.151,8.243 9.679,11.084 9.757,11.112l-0.681,1.88c-0.372,-0.134 -9.129,-3.403 -11.22,-13.378c-0.098,-0.467 0.147,-0.938 0.587,-1.125c2.189,-0.933 53.648,-22.846 55.077,-23.407c6.253,-2.458 14.18,2.656 17.663,11.407c2.042,5.13 2.192,10.662 0.401,14.799c-1.163,2.684 -3.042,4.6 -5.435,5.541c-1.843,0.725 -39.593,16.827 -39.974,16.99z"></path><path d="M30.013,69.992c-5.518,0 -11.47,-4.76 -14.361,-12.024c-1.891,-4.748 -2.157,-9.761 -0.788,-13.763c-5.381,0.486 -8.461,1.667 -8.5,1.682l-0.729,-1.862c0.212,-0.083 5.275,-2.025 13.865,-2.025c13.161,0 18.305,6.112 18.518,6.372c0.054,0.066 0.098,0.136 0.133,0.213c0,0 0.137,0.297 0.198,0.453c2.042,5.127 2.191,10.66 0.4,14.796c-1.163,2.684 -3.042,4.6 -5.435,5.541c-1.061,0.418 -2.172,0.617 -3.301,0.617zM17.061,44.056c-1.557,3.658 -1.399,8.529 0.45,13.173c3.077,7.729 9.84,12.341 15.073,10.286c1.887,-0.742 3.384,-2.289 4.331,-4.475c1.584,-3.659 1.426,-8.618 -0.424,-13.264c-0.024,-0.061 -0.062,-0.147 -0.094,-0.219c-0.646,-0.695 -5.572,-5.557 -16.897,-5.557c-0.85,0 -1.663,0.02 -2.439,0.056z"></path><rect x="15.88519" y="59.12921" transform="rotate(-22.508)" width="43.458" height="1"></rect><path d="M47.5,57.883c-0.194,0 -0.379,-0.114 -0.46,-0.305c-0.108,-0.254 0.011,-0.548 0.265,-0.656l3,-1.272c0.254,-0.106 0.548,0.011 0.656,0.265c0.108,0.254 -0.011,0.548 -0.265,0.656l-3,1.272c-0.065,0.028 -0.131,0.04 -0.196,0.04z"></path><path d="M43.5,59.579c-0.194,0 -0.379,-0.114 -0.46,-0.305c-0.108,-0.254 0.011,-0.548 0.265,-0.656l1,-0.424c0.254,-0.107 0.547,0.01 0.656,0.265c0.108,0.254 -0.011,0.548 -0.265,0.656l-1,0.424c-0.065,0.027 -0.131,0.04 -0.196,0.04z"></path><path d="M55.5,54.491c-0.194,0 -0.379,-0.114 -0.46,-0.305c-0.108,-0.254 0.011,-0.548 0.265,-0.656l18,-7.633c0.255,-0.107 0.547,0.011 0.656,0.265c0.108,0.254 -0.011,0.548 -0.265,0.656l-18,7.633c-0.065,0.027 -0.131,0.04 -0.196,0.04z"></path><path d="M67,60h-12v-2h12c0.551,0 1,-0.449 1,-1v-4h2v4c0,1.654 -1.346,3 -3,3z"></path></g></g></g></svg>